# xmcd
#
# Track frame offsets:
#	150
#	15362
#	39239
#	55539
#	69092
#	86429
#	97842
#	119237
#	141468
#	157471
#	177621
#	191225
#	209523
#	220153
#	237386
#	272166
#
# Disc length: 3643 seconds
#
# Revision: 2
# Processed by: cddbd v1.5.2PL0 Copyright (c) Steve Scherf et al.
# Submitted via: audiograbber 1.83.01
#
DISCID=ed0e3910
DTITLE=John Prine - CB90248
DYEAR=2005
DGENRE=Karaoke
TTITLE0=JOHN PRINE - Illegal Smile
TTITLE1=JOHN PRINE - Ain't Hurtin' Nobody
TTITLE2=JOHN PRINE - Dear Abby
TTITLE3=JOHN PRINE - Please Don't Bury Me
TTITLE4=JOHN PRINE - Souvenirs
TTITLE5=JOHN PRINE - Grandpa Was A Carpenter
TTITLE6=JOHN PRINE - Hello In There
TTITLE7=JOHN PRINE - You Got Gold
TTITLE8=JOHN PRINE - Paradise
TTITLE9=JOHN PRINE - Sam Stone
TTITLE10=JOHN PRINE - Spanish Pipedream
TTITLE11=JOHN PRINE - Angel From Montgomery
TTITLE12=JOHN PRINE - Yes, I Guess They Outta Name A Drink After You
TTITLE13=JOHN PRINE - Take A Look At My Heart
TTITLE14=JOHN PRINE - The Great Compromise
TTITLE15=JOHN PRINE - Data Track
EXTD=
EXTT0=
EXTT1=
EXTT2=
EXTT3=
EXTT4=
EXTT5=
EXTT6=
EXTT7=
EXTT8=
EXTT9=
EXTT10=
EXTT11=
EXTT12=
EXTT13=
EXTT14=
EXTT15=Data Track
PLAYORDER=
